<?xml version="1.0" encoding="UTF-8" standalone="no"?>
<!-- Uploaded to: SVG Repo, www.svgrepo.com, Generator: SVG Repo Mixer Tools -->

<svg
   height="468.01224"
   width="353.39258"
   version="1.1"
   id="Layer_1"
   viewBox="0 0 123.69933 163.82008"
   xmlns="http://www.w3.org/2000/svg"><defs
   id="defs118" />
<g
   id="g113"
   transform="matrix(0.53898831,0,0,0.53898831,-13.615377,7.6383898)"
   style="stroke-width:6.49427;stroke-dasharray:none">
	<path
   id="path1184"
   style="fill:#3caed6;stroke:#ffffff;stroke-width:19.4828;stroke-dasharray:none;stroke-opacity:1"
   d="m 140.01429,4.1686897e-4 c 0,0 -101.754713,113.62545313103 -104.934525,172.26694313103 -0.05089,0.9304 -0.07737,1.84749 -0.07737,2.74992 0,9.02437 1.154812,17.79218 3.321973,26.16355 1.73373,6.6971 4.116015,13.14064 7.075207,19.25831 3.69899,7.6471 8.299407,14.78569 13.660806,21.27509 2.144754,2.596 4.411707,5.08656 6.791082,7.46588 1.189363,1.18933 2.405869,2.35123 3.650492,3.48306 2.26e-4,2.1e-4 0.001,-2e-4 0.0013,0 2.489482,2.26384 5.08715,4.41179 7.78425,6.43212 2.66e-4,2e-4 0.001,-2e-4 0.0013,0 1.348413,1.01004 2.720326,1.9893 4.117268,2.93511 2.85e-4,1.9e-4 9.83e-4,-1.9e-4 0.0013,0 1.396944,0.94579 2.817369,1.85918 4.260599,2.7385 3.04e-4,1.9e-4 9.64e-4,-1.8e-4 0.0013,0 1.443231,0.87931 2.909044,1.72497 4.396319,2.53556 3.22e-4,1.8e-4 9.46e-4,-1.7e-4 0.0013,0 1.487277,0.81058 2.995352,1.58665 4.524429,2.32627 3.39e-4,1.6e-4 9.29e-4,-1.6e-4 0.0013,0 1.52908,0.7396 3.078827,1.44423 4.647465,2.11064 3.55e-4,1.5e-4 9.13e-4,-1.5e-4 0.0013,0 1.568645,0.66639 3.155665,1.29644 4.761625,1.8874 3.7e-4,1.3e-4 9e-4,-1.4e-4 10e-4,0 3.21229,1.18201 6.49729,2.21042 9.84542,3.07717 3.9e-4,10e-5 8.7e-4,-1.1e-4 0.001,0 3.34814,0.8667 6.75991,1.57206 10.22594,2.10556 4.1e-4,6e-5 8.6e-4,-6e-5 0.001,0 3.46605,0.53347 6.98592,0.89583 10.55193,1.07815 1.78321,0.0912 3.5783,0.13697 5.38314,0.13699 h 0.001 0.003 c 2.69218,0 5.89357,-0.0101 8.82435,-0.40843 7.58857,-0.63713 14.93037,-2.07895 21.95496,-4.23142 0.82339,-0.15628 1.64635,-0.33569 2.4696,-0.61011 0.875,0 1.75061,-0.8752 2.62561,-0.8752 2.625,-0.875 5.25058,-1.74935 7.87558,-2.62435 0.875,0 1.75041,-0.87521 1.75041,-0.87521 2.625,-0.87499 5.25058,-2.62475 7.87557,-4.37475 0.875,0 0.87541,-0.87521 1.75041,-0.87521 2.625,-1.74999 5.25058,-3.50023 7.87558,-5.25122 0,0 0.8752,-2.1e-4 0.8752,-0.87521 2.625,-1.75 5.25058,-4.37417 7.87558,-6.12517 20.12698,-20.12697 33.25271,-47.25511 33.25271,-77.88308 0,-56.00494 -96.25816,-165.3906671 -104.13416,-174.1416583 z"
   transform="translate(-1.4990817e-6)" /><path
   style="fill:#3caed6;stroke:none;stroke-width:6.49427;stroke-dasharray:none;stroke-opacity:1"
   d="M 245.023,175.017 C 245.023,119.012 148.764,9.626 140.888,0.875 v 0 0 0 c 0,0 -105.885,116.386 -105.885,174.142 0,57.756 47.255,105.01 105.01,105.01 3.5,0 7.876,0 11.376,-0.875 0.875,0 1.75,0 2.625,-0.875 2.625,0 5.251,-0.875 7.876,-0.875 0.875,0 1.75,-0.875 3.5,-0.875 2.625,-0.875 5.251,-0.875 7.876,-1.75 0.875,0 1.75,-0.875 2.625,-0.875 2.625,-0.875 5.251,-1.75 7.876,-2.625 0.875,0 1.75,-0.875 1.75,-0.875 2.625,-0.875 5.251,-2.625 7.876,-4.375 0.875,0 0.875,-0.875 1.75,-0.875 2.625,-1.75 5.251,-3.5 7.876,-5.251 0,0 0.875,0 0.875,-0.875 2.625,-1.75 5.251,-4.375 7.876,-6.126 v 0 c 20.127,-20.127 33.253,-47.255 33.253,-77.883 z"
   id="path107" />
	<path
   style="fill:#63bfde;stroke-width:6.49427;stroke-dasharray:none"
   d="m 183.768,140.014 c -9.626,0 -17.502,7.876 -17.502,17.502 0,9.626 7.876,17.502 17.502,17.502 9.626,0 17.502,-7.876 17.502,-17.502 0,-9.627 -7.877,-17.502 -17.502,-17.502 z"
   id="path109" />
	<path
   style="display:inline;fill:#369dc0;stroke-width:6.49427;stroke-dasharray:none"
   d="m 148.764,271.276 c -57.756,0 -105.01,-47.255 -105.01,-105.01 0,-48.13 71.757,-136.513 97.134,-165.391 L 140.014,0 c 0,0 -105.01,117.261 -105.01,175.017 0,57.756 47.255,105.01 105.01,105.01 31.503,0 59.506,-14.001 78.758,-35.003 -19.254,15.751 -42.881,26.252 -70.008,26.252 z"
   id="path111" />
</g>
</svg>
